<?xml version="1.0" encoding="utf-8"?>
<!-- Generator: Adobe Illustrator 22.0.0, SVG Export Plug-In . SVG Version: 6.00 Build 0)  -->
<svg version="1.1" id="Ciapd" xmlns="http://www.w3.org/2000/svg" xmlns:xlink="http://www.w3.org/1999/xlink" x="0px" y="0px"
	 viewBox="0 0 432 110" style="enable-background:new 0 0 432 110;" xml:space="preserve">
<style type="text/css">
	.st0{fill:#FFFFFF;stroke:#FFFFFF;stroke-miterlimit:10;}
	.st1{fill:none;stroke:#FFFFFF;stroke-miterlimit:10;}
</style>
<g id="I">
	<rect x="103.3" y="5" class="st0" width="26.5" height="98.9"/>
</g>
<path id="C" class="st0" d="M2.5,46.1c0,6.8,0,20,0,20s3.1,14.8,13.3,24S43.2,103,43.2,103h48.7V80.2H44.7c0,0-6.1-2-10.2-6.7
	c-3.9-4.4-5.8-11.3-5.8-11.3c0-0.4,0-0.8,0-0.8s0-8.6,0-12.3c0,0,1.2-8.8,6.2-13.8c5.1-5.2,13.8-6.7,13.8-6.7
	C61.6,28.4,92.5,28,92.5,28V5H43.2c0,0-18.4,4.3-28.3,13.3C4.4,27.8,2.5,42.2,2.5,42.2S2.5,43.8,2.5,46.1z"/>
<g id="P">
	<path class="st0" d="M297.7,77.1h4.1c0,0,11.5-2.8,17.6-9c5.9-5.9,8.2-14.1,8.8-16.8c0-0.1,0.2-2.9,0.2-2.9
		c-0.1-2.8-0.4-15.7-0.4-15.7s-2.6-12.1-9.9-18.8C310.6,6.8,298.5,5,298.5,5h-49.2v98.9h25.5V28h18.7c0,0,3.2,0.8,5.2,2.8
		c2.2,2.2,3.2,5.7,3.2,5.7l-0.3,9.8c0,0-0.9,3.1-2.9,5.2c-2,2-5.1,2.9-5.1,2.9l-13.9,0.1v22.6h18.9"/>
</g>
<path class="st0" d="M203,57.2c8.8,0,21.4,0,21.4,0L202.2,5.5l-25,0.7l-42.8,98l28.8-0.7l8.2-19l36.5-0.5l8.8,20.5l28-0.3l-18.1-42
	h-29.7c0,0-7.5,0-15.1,0l7.6-17.2l5.3,12.2C194.7,57.2,198.3,57.2,203,57.2z"/>
<line class="st1" x1="224.4" y1="57.2" x2="224.4" y2="57.2"/>
<path class="st0" d="M429.9,46.2l0.3,17.3c0,0-3.8,19-15.7,29.2c-11.8,10.1-31.6,11.2-31.6,11.2h-43.1V80.5H383c0,0,8.2-1.8,13.3-6
	c5.2-4.3,7.2-11.1,7.2-11.1l-0.3-15.8c0,0-1.3-8.1-6.3-12.8c-5.1-4.9-14-6.5-14-6.5s-18.1,0-18.1,0v40.8v6.4h-25.1V5h49.8
	c0,0,19.2,4.9,28.5,14.4C428.8,30.4,429.9,46.2,429.9,46.2"/>
</svg>
